<svg width="20" height="20" viewBox="0 0 1.2 1.2" fill="none" xmlns="http://www.w3.org/2000/svg"><path fill="#fff" fill-opacity=".01" d="M0 0h1.2v1.2H0z"/><path fill-rule="evenodd" clip-rule="evenodd" d="M.475.258c0 .059-.045.108-.1.108s-.1-.048-.1-.108S.32.15.375.15s.1.048.1.108m-.1.458c.055 0 .1-.048.1-.108S.43.5.375.5s-.1.048-.1.108c0 .059.045.108.1.108m0 .35c.055 0 .1-.048.1-.108S.43.85.375.85s-.1.048-.1.108.045.108.1.108m.55-.808c0 .059-.045.108-.1.108s-.1-.048-.1-.108S.77.15.825.15s.1.048.1.108m-.1.458c.055 0 .1-.048.1-.108S.88.5.825.5s-.1.048-.1.108c0 .059.045.108.1.108m0 .35c.055 0 .1-.048.1-.108S.88.85.825.85s-.1.048-.1.108.045.108.1.108" fill="#000"/></svg>