<svg width="16" height="16" viewBox="0 0 16 16" fill="none" xmlns="http://www.w3.org/2000/svg"><path d="m15.805 15.028-5.021-5.031c1.199-1.418 1.702-3.279 1.311-5.197a5.8 5.8 0 0 0-.753-1.89 6.146 6.146 0 0 0-9.54-1.14c-2.398 2.362-2.398 6.225-.028 8.616a6 6 0 0 0 4.324 1.807h.028c1.45 0 2.79-.501 3.905-1.39l5.02 5.03a.56.56 0 0 0 .39.166.56.56 0 0 0 .39-.166.54.54 0 0 0 .167-.39 1.4 1.4 0 0 0-.195-.417M2.554 9.606C.602 7.662.63 4.493 2.582 2.547a4.96 4.96 0 0 1 3.515-1.446c1.284 0 2.566.501 3.542 1.473a4.94 4.94 0 0 1 1.45 3.53 4.96 4.96 0 0 1-1.478 3.53c-1.953 1.946-5.133 1.918-7.058-.028" fill="#000" fill-opacity=".4"/></svg>